<svg width="110" height="47" viewBox="0 0 110 47" fill="none" xmlns="http://www.w3.org/2000/svg">
<g clip-path="url(#clip0_25_167)">
<path d="M56.9528 23.8035H47.7559V9.32945H56.9528C60.926 9.32945 64.1758 12.5851 64.1758 16.5666C64.1758 20.5469 60.926 23.8035 56.9528 23.8035ZM74.4051 13.9352C73.2516 5.07629 65.9095 0 56.9689 0H33.8896C35.6987 1.17292 37.2701 2.71476 38.4591 4.68604C40.692 8.39046 41.1093 13.7808 39.4594 17.7848C38.8329 19.3061 37.9333 20.6738 36.8506 21.8825C40.4833 24.3493 42.6134 27.761 43.0584 33.0575C43.3173 36.1485 42.4849 39.4265 40.8702 42.0658C39.5699 44.1926 37.8925 45.7992 35.9764 46.9983H47.7432V32.8361H56.5553C60.7613 32.8361 64.7485 31.6686 67.8976 29.48C71.9144 26.6885 74.5674 22.235 74.5674 16.4184C74.5674 15.56 74.5088 14.7337 74.4051 13.9352Z" fill="#1C76BC"/>
<path d="M23.3721 38.0118H10.1353V27.5964H23.3721C26.5804 27.5964 29.7376 29.3033 29.7254 32.8039C29.7127 36.2786 26.5792 38.0118 23.3721 38.0118ZM10.1353 9.07712H21.0119C24.1055 9.07712 27.1485 10.7206 27.1363 14.0973C27.1239 17.9002 23.5357 19.1155 20.4232 19.1155H10.1353V9.07712ZM33.8895 23.74C33.0637 23.2815 32.18 22.8721 31.2484 22.4897C32.2335 21.8704 33.1168 21.1752 33.8895 20.4204C35.0654 19.2715 35.9792 17.982 36.5551 16.5827C37.8397 13.4633 37.463 9.12241 35.7691 6.31455C35.2651 5.47848 34.6332 4.70486 33.8895 4.00131C31.3457 1.59742 27.4243 0.0626831 22.2444 0.0626831H0V47H22.7514C26.5689 47 30.6267 46.452 33.8895 44.5657C35.5875 43.5841 37.0743 42.2466 38.191 40.4211C39.3669 38.4981 40.142 35.8957 39.9264 33.3213C39.4962 28.1855 37.1648 25.5577 33.8895 23.74Z" fill="#FBB042"/>
<path d="M78.926 27.188L85.2807 12.332L91.6385 27.188H78.926ZM90.3769 0.133484H80.1826L76.1073 9.86784C76.7937 11.8767 77.1626 14.0718 77.1626 16.4184C77.1626 20.0204 76.2309 23.2966 74.5672 26.0798C72.6648 29.2617 69.8 31.7932 66.2504 33.4162L60.5645 46.9983H71.1047L74.5672 37.7563L75.3778 35.5944H95.1867L99.4558 46.9983H110L90.3769 0.133484Z" fill="#FBB042"/>
</g>
<defs>
<clipPath id="clip0_25_167">
<rect width="110" height="47" fill="white"/>
</clipPath>
</defs>
</svg>
